<svg width="512" height="512" viewBox="0 0 512 512" fill="none" xmlns="http://www.w3.org/2000/svg">
<path d="M201.364 335.531C205.887 335.528 210.395 335.005 214.799 333.971C223.121 332.039 230.916 328.301 237.632 323.021L231.432 355.816C231.21 356.988 231.343 358.2 231.813 359.296C232.283 360.393 233.069 361.324 234.071 361.971C235.073 362.619 236.245 362.953 237.438 362.931C238.631 362.909 239.79 362.532 240.767 361.848C251.021 354.65 263.659 351.691 276.042 353.591C277.208 353.768 278.4 353.597 279.47 353.1C280.539 352.604 281.439 351.803 282.055 350.798C282.672 349.793 282.979 348.628 282.938 347.449C282.897 346.271 282.51 345.131 281.824 344.171L262.45 317.053C275.868 319.628 289.764 317.424 301.726 310.823C313.688 304.222 322.961 293.64 327.935 280.915C332.909 268.19 333.271 254.125 328.957 241.162C324.643 228.198 315.926 217.154 304.319 209.947L215.159 154.62C214.488 154.203 213.741 153.923 212.961 153.796C212.181 153.669 211.383 153.697 210.614 153.879C209.845 154.061 209.12 154.393 208.48 154.856C207.839 155.319 207.297 155.904 206.883 156.577L151.8 246.213C146.316 255.062 143.292 265.213 143.041 275.62C142.79 286.028 145.321 296.313 150.372 305.416C155.423 314.519 162.812 322.108 171.775 327.402C180.739 332.696 190.953 335.502 201.363 335.531H201.364ZM245.573 345.606L250.288 320.676L264.912 341.146C258.264 341.555 251.729 343.062 245.573 345.606V345.606ZM156.23 287.634C154.821 281.69 154.607 275.525 155.599 269.498C156.591 263.47 158.77 257.7 162.01 252.521L213.952 167.994L297.987 220.143C308.391 226.613 315.818 236.931 318.652 248.851C321.486 260.77 319.497 273.327 313.118 283.787C306.739 294.247 296.487 301.765 284.592 304.702C272.698 307.64 260.125 305.761 249.609 299.474C248.344 298.714 246.842 298.447 245.392 298.726L244.918 298.816C244.104 298.972 243.331 299.295 242.647 299.765C241.964 300.235 241.386 300.841 240.949 301.546C236.103 309.353 229.05 315.549 220.683 319.348C212.316 323.148 203.01 324.381 193.942 322.892C184.874 321.403 176.451 317.258 169.739 310.982C163.026 304.707 158.325 296.581 156.23 287.634V287.634Z" fill="#285E61"/>
<path d="M129.274 154.594L97.392 99.888C95.892 97.275 92.117 96.775 88.556 97.608C85.089 98.42 81.929 100.543 81.744 103.551L77.456 166.724C77.4375 167.051 77.4482 167.38 77.488 167.705C78.188 170.705 83.076 171.734 86.356 170.966C88.418 170.484 89.856 169.455 89.909 167.566L90.552 154.266L112.01 149.244L118.488 160.873C119.374 162.543 121.12 162.827 123.182 162.344C126.461 161.576 130.361 158.391 129.682 155.485C129.581 155.173 129.444 154.874 129.274 154.594V154.594ZM90.845 144.119L92.263 113.444L107.149 140.3L90.845 144.119Z" fill="#285E61"/>
<path d="M472.982 56.4C469.038 52.4637 464.349 49.3524 459.189 47.2474C454.029 45.1425 448.502 44.0861 442.93 44.14L360.18 44.583L357.393 32.677C355.226 23.4225 349.472 15.4077 341.396 10.3955C333.321 5.38327 323.585 3.7842 314.33 5.94999L52.152 67.322C42.903 69.498 34.8949 75.254 29.8845 83.3271C24.8741 91.4002 23.2707 101.131 25.426 110.385L111.789 479.324C113.632 487.184 118.073 494.192 124.393 499.216C130.713 504.239 138.542 506.984 146.615 507.007C149.388 507.005 152.151 506.684 154.851 506.05L197.578 496.05L445.345 494.722C456.588 494.649 467.343 490.119 475.25 482.127C483.158 474.134 487.572 463.331 487.524 452.088L485.563 86.318C485.549 80.747 484.429 75.2341 482.27 70.0987C480.11 64.9632 476.953 60.3071 472.982 56.4V56.4ZM152.116 494.366C149.068 495.08 145.909 495.186 142.82 494.679C139.731 494.172 136.772 493.061 134.112 491.41C131.452 489.759 129.144 487.601 127.318 485.057C125.493 482.514 124.186 479.636 123.473 476.588L37.109 107.649C35.6757 101.494 36.7426 95.0212 40.0754 89.6515C43.4083 84.2818 48.735 80.4533 54.887 79.006L317.064 17.634C318.86 17.213 320.698 17.0003 322.543 17C327.913 17.0148 333.121 18.8406 337.325 22.1822C341.529 25.5237 344.483 30.1856 345.709 35.414L432.071 404.353C433.512 410.508 432.449 416.982 429.116 422.353C425.784 427.724 420.454 431.552 414.3 432.994L195.984 484.1C195.546 484.152 195.116 484.253 194.7 484.4L152.116 494.366ZM445.28 482.721L250.044 483.767L417.029 444.679C421.612 443.607 425.938 441.642 429.761 438.897C433.584 436.153 436.829 432.682 439.311 428.683C441.793 424.684 443.462 420.236 444.225 415.591C444.987 410.947 444.827 406.198 443.754 401.616L362.985 56.568L442.994 56.139H443.162C451.198 56.1389 458.906 59.3203 464.603 64.9877C470.3 70.6551 473.521 78.3475 473.562 86.383L475.523 452.151C475.557 460.213 472.392 467.959 466.723 473.69C461.053 479.421 453.342 482.669 445.28 482.721V482.721Z" fill="#285E61"/>
</svg>
